<?xml version="1.0" ?><!DOCTYPE svg  PUBLIC '-//W3C//DTD SVG 1.1//EN'  'http://www.w3.org/Graphics/SVG/1.1/DTD/svg11.dtd'><svg enable-background="new 0 0 512 512" height="512px" id="Layer_1" version="1.1" viewBox="0 0 512 512" width="512px" xml:space="preserve" xmlns="http://www.w3.org/2000/svg" xmlns:xlink="http://www.w3.org/1999/xlink"><path d="M256,0C114.615,0,0,114.615,0,256s114.615,256,256,256s256-114.615,256-256S397.385,0,256,0z M256,51.188  c47.562,0,90.812,16.906,125.562,44.125c-16.156,13.938-50.875,40.375-103.938,65.438C258.062,126.22,235.03,91.22,207.499,57.595  C223.125,53.781,239.219,51.188,256,51.188z M168.938,71.281c15.5,21.062,41,58.375,67.906,106  c-57.469,18.844-123.875,19.469-175.25,15.344C79.25,139,118.375,95.188,168.938,71.281z M253.25,207.281  c7.188,13.75,14.28,28.562,21.28,43.594c-107.312,23.531-157.562,93.969-177.655,132.594c-28.156-35.062-45.688-79-45.688-127.469  c0-9.062,0.812-17.906,1.969-26.625C93.531,234.969,165,237.156,253.25,207.281z M292.281,292.188  c19.156,46.812,35.97,97.531,45.781,151.25c-25.156,11.031-52.844,17.375-82.062,17.375c-48.595,0-92.625-17.655-127.75-45.905  C179.094,344.219,238.031,308.562,292.281,292.188z M374.719,422.344c-2.594-14.656-13.781-69.438-40.281-139.562  c62.031-9.188,111.25,2.938,123.312,6.438C448.719,343.969,418.062,391.344,374.719,422.344z M318.969,244.531  c-7.438-17.281-15.438-34.938-24.781-53.125c37.062-16.031,76.438-37.938,117.219-67.375  c30.375,35.719,49.406,81.406,49.406,131.969C406.188,243.875,359.438,241.219,318.969,244.531z"/></svg>