<?xml version="1.0" encoding="utf-8"?>
<!-- Generator: Adobe Illustrator 17.1.0, SVG Export Plug-In . SVG Version: 6.00 Build 0)  -->
<!DOCTYPE svg PUBLIC "-//W3C//DTD SVG 1.1//EN" "http://www.w3.org/Graphics/SVG/1.1/DTD/svg11.dtd">
<svg version="1.1" id="Layer_1" xmlns="http://www.w3.org/2000/svg" xmlns:xlink="http://www.w3.org/1999/xlink" x="0px" y="0px"
	 viewBox="0 0 81.166 81.253" enable-background="new 0 0 81.166 81.253" xml:space="preserve">
<g>
	<g>
		<circle fill="none" cx="40.4" cy="9.431" r="0.998"/>
		<ellipse fill="none" cx="49.271" cy="9.336" rx="1.245" ry="1.399"/>
		<circle fill="none" cx="58.154" cy="18.664" r="0.286"/>
		<ellipse fill="none" cx="53.665" cy="14.181" rx="0.54" ry="0.534"/>
		
			<ellipse transform="matrix(0.3911 0.9204 -0.9204 0.3911 27.5078 -23.0506)" fill="none" cx="31.174" cy="9.263" rx="1.763" ry="1.549"/>
		<circle fill="none" cx="31.408" cy="63.175" r="0.273"/>
		<circle fill="none" cx="22.399" cy="18.581" r="0.598"/>
		<circle fill="none" cx="26.824" cy="14.054" r="0.916"/>
		<ellipse fill="none" cx="35.828" cy="67.843" rx="0.865" ry="0.896"/>
		<ellipse fill="none" cx="13.432" cy="36.494" rx="0.713" ry="0.681"/>
		<circle fill="none" cx="62.593" cy="23.115" r="0.337"/>
		
			<ellipse transform="matrix(0.3593 -0.9332 0.9332 0.3593 -17.1404 29.8105)" fill="none" cx="13.14" cy="27.388" rx="1.367" ry="1.589"/>
		<ellipse fill="none" cx="13.49" cy="45.434" rx="0.885" ry="0.808"/>
		
			<ellipse transform="matrix(-0.6101 -0.7924 0.7924 -0.6101 -18.408 109.048)" fill="none" cx="17.629" cy="59.054" rx="1.393" ry="1.526"/>
		<circle fill="none" cx="17.891" cy="22.988" r="0.757"/>
		<circle fill="none" cx="18.125" cy="49.804" r="0.279"/>
		
			<ellipse transform="matrix(-0.4721 -0.8816 0.8816 -0.4721 -23.4148 113.2043)" fill="none" cx="22.189" cy="63.613" rx="1.45" ry="1.521"/>
		<ellipse fill="none" cx="71.787" cy="40.938" rx="1.011" ry="0.967"/>
		<circle fill="none" cx="67.164" cy="45.581" r="0.127"/>
		<circle fill="none" cx="67.196" cy="54.399" r="0.896"/>
		<ellipse fill="none" cx="71.922" cy="31.962" rx="1.368" ry="1.202"/>
		<ellipse fill="none" cx="72.028" cy="49.999" rx="1.686" ry="1.647"/>
		<ellipse fill="none" cx="62.675" cy="58.877" rx="0.636" ry="0.63"/>
		<ellipse fill="none" cx="58.211" cy="63.347" rx="0.763" ry="0.84"/>
		<ellipse fill="none" cx="53.849" cy="68.084" rx="1.36" ry="1.469"/>
		<circle fill="none" cx="67.151" cy="27.521" r="0.56"/>
		<ellipse fill="none" cx="44.73" cy="67.791" rx="0.661" ry="0.706"/>
		<linearGradient id="SVGID_1_" gradientUnits="userSpaceOnUse" x1="13.9458" y1="81.2528" x2="13.9458" y2="-1.046221e-04">
			<stop  offset="0" style="stop-color:#E9AB13"/>
			<stop  offset="0.1429" style="stop-color:#EABE12"/>
			<stop  offset="1" style="stop-color:#FFDF4F"/>
		</linearGradient>
		<path fill="url(#SVGID_1_)" d="M14.934,15.602c0.359-0.339,0.748-1.525-0.24-2.132c-0.988-0.607-1.844,0.191-1.844,0.191
			c-0.141,0.141-0.586,0.686,0.07,1.624C13.576,16.223,14.574,15.942,14.934,15.602z"/>
		<linearGradient id="SVGID_2_" gradientUnits="userSpaceOnUse" x1="4.8506" y1="81.2528" x2="4.8506" y2="-1.046221e-04">
			<stop  offset="0" style="stop-color:#E9AB13"/>
			<stop  offset="0.1429" style="stop-color:#EABE12"/>
			<stop  offset="1" style="stop-color:#FFDF4F"/>
		</linearGradient>
		<circle fill="url(#SVGID_2_)" cx="4.85" cy="23.157" r="0.529"/>
		<linearGradient id="SVGID_3_" gradientUnits="userSpaceOnUse" x1="22.6363" y1="81.2528" x2="22.6363" y2="-1.046221e-04">
			<stop  offset="0" style="stop-color:#E9AB13"/>
			<stop  offset="0.1429" style="stop-color:#EABE12"/>
			<stop  offset="1" style="stop-color:#FFDF4F"/>
		</linearGradient>
		<path fill="url(#SVGID_3_)" d="M22.699,6.53c0.578,0.028,0.846-0.466,0.84-0.91c-0.006-0.445-0.389-0.94-0.961-0.926
			c0,0-0.246-0.02-0.416,0.106c0,0-0.367,0.162-0.424,0.728C21.682,6.093,22.119,6.502,22.699,6.53z"/>
		<linearGradient id="SVGID_4_" gradientUnits="userSpaceOnUse" x1="9.4043" y1="81.2528" x2="9.4043" y2="-1.046221e-04">
			<stop  offset="0" style="stop-color:#E9AB13"/>
			<stop  offset="0.1429" style="stop-color:#EABE12"/>
			<stop  offset="1" style="stop-color:#FFDF4F"/>
		</linearGradient>
		<ellipse fill="url(#SVGID_4_)" cx="9.404" cy="18.942" rx="1.059" ry="1.038"/>
		<linearGradient id="SVGID_5_" gradientUnits="userSpaceOnUse" x1="18.3931" y1="81.2528" x2="18.3931" y2="-1.046221e-04">
			<stop  offset="0" style="stop-color:#E9AB13"/>
			<stop  offset="0.1429" style="stop-color:#EABE12"/>
			<stop  offset="1" style="stop-color:#FFDF4F"/>
		</linearGradient>
		<path fill="url(#SVGID_5_)" d="M19.402,11.169c0.861-0.869-0.127-1.899-0.432-2.16c-0.303-0.262-1.256-0.24-1.601,0.184
			c0,0-0.51,0.359-0.262,1.207C17.355,11.247,18.539,12.037,19.402,11.169z"/>
		<linearGradient id="SVGID_6_" gradientUnits="userSpaceOnUse" x1="0.3389" y1="81.2528" x2="0.3389" y2="-1.046221e-04">
			<stop  offset="0" style="stop-color:#E9AB13"/>
			<stop  offset="0.1429" style="stop-color:#EABE12"/>
			<stop  offset="1" style="stop-color:#FFDF4F"/>
		</linearGradient>
		<circle fill="url(#SVGID_6_)" cx="0.34" cy="36.374" r="0.297"/>
		<linearGradient id="SVGID_7_" gradientUnits="userSpaceOnUse" x1="5.0733" y1="81.2528" x2="5.0733" y2="-1.046221e-04">
			<stop  offset="0" style="stop-color:#E9AB13"/>
			<stop  offset="0.1429" style="stop-color:#EABE12"/>
			<stop  offset="1" style="stop-color:#FFDF4F"/>
		</linearGradient>
		<ellipse fill="url(#SVGID_7_)" cx="5.074" cy="49.76" rx="1.092" ry="1.038"/>
		<linearGradient id="SVGID_8_" gradientUnits="userSpaceOnUse" x1="0.2861" y1="81.2528" x2="0.2861" y2="-1.046221e-04">
			<stop  offset="0" style="stop-color:#E9AB13"/>
			<stop  offset="0.1429" style="stop-color:#EABE12"/>
			<stop  offset="1" style="stop-color:#FFDF4F"/>
		</linearGradient>
		<circle fill="url(#SVGID_8_)" cx="0.285" cy="45.387" r="0.286"/>
		<linearGradient id="SVGID_9_" gradientUnits="userSpaceOnUse" x1="4.7764" y1="81.2528" x2="4.7764" y2="3.974305e-04">
			<stop  offset="0" style="stop-color:#E9AB13"/>
			<stop  offset="0.1429" style="stop-color:#EABE12"/>
			<stop  offset="1" style="stop-color:#FFDF4F"/>
		</linearGradient>
		<circle fill="url(#SVGID_9_)" cx="4.777" cy="58.752" r="0.286"/>
		<linearGradient id="SVGID_10_" gradientUnits="userSpaceOnUse" x1="27.002" y1="81.2528" x2="27.002" y2="-1.046221e-04">
			<stop  offset="0" style="stop-color:#E9AB13"/>
			<stop  offset="0.1429" style="stop-color:#EABE12"/>
			<stop  offset="1" style="stop-color:#FFDF4F"/>
		</linearGradient>
		<circle fill="url(#SVGID_10_)" cx="27.002" cy="0.984" r="0.399"/>
		<linearGradient id="SVGID_11_" gradientUnits="userSpaceOnUse" x1="75.4044" y1="81.2528" x2="75.4044" y2="-1.046221e-04">
			<stop  offset="0" style="stop-color:#E9AB13"/>
			<stop  offset="0.1429" style="stop-color:#EABE12"/>
			<stop  offset="1" style="stop-color:#FFDF4F"/>
		</linearGradient>
		<path fill="url(#SVGID_11_)" d="M76.037,24.686c0.822-0.395,1.205-1.305,0.857-2.033c-0.351-0.728-1.299-0.996-2.123-0.602
			c-0.822,0.394-1.206,1.305-0.856,2.032C74.264,24.811,75.215,25.081,76.037,24.686z"/>
		<linearGradient id="SVGID_12_" gradientUnits="userSpaceOnUse" x1="75.8813" y1="81.2528" x2="75.8813" y2="-1.046221e-04">
			<stop  offset="0" style="stop-color:#E9AB13"/>
			<stop  offset="0.1429" style="stop-color:#EABE12"/>
			<stop  offset="1" style="stop-color:#FFDF4F"/>
		</linearGradient>
		<circle fill="url(#SVGID_12_)" cx="75.881" cy="14.23" r="0.286"/>
		<linearGradient id="SVGID_13_" gradientUnits="userSpaceOnUse" x1="80.1495" y1="81.2528" x2="80.1495" y2="-1.046221e-04">
			<stop  offset="0" style="stop-color:#E9AB13"/>
			<stop  offset="0.1429" style="stop-color:#EABE12"/>
			<stop  offset="1" style="stop-color:#FFDF4F"/>
		</linearGradient>
		<ellipse fill="url(#SVGID_13_)" cx="80.149" cy="27.626" rx="0.678" ry="0.593"/>
		<linearGradient id="SVGID_14_" gradientUnits="userSpaceOnUse" x1="71.4014" y1="81.2528" x2="71.4014" y2="-1.046221e-04">
			<stop  offset="0" style="stop-color:#E9AB13"/>
			<stop  offset="0.1429" style="stop-color:#EABE12"/>
			<stop  offset="1" style="stop-color:#FFDF4F"/>
		</linearGradient>
		<circle fill="url(#SVGID_14_)" cx="71.402" cy="9.834" r="0.339"/>
		<linearGradient id="SVGID_15_" gradientUnits="userSpaceOnUse" x1="53.6236" y1="81.2528" x2="53.6236" y2="-1.046221e-04">
			<stop  offset="0" style="stop-color:#E9AB13"/>
			<stop  offset="0.1429" style="stop-color:#EABE12"/>
			<stop  offset="1" style="stop-color:#FFDF4F"/>
		</linearGradient>
		<path fill="url(#SVGID_15_)" d="M53.523,1.757c0.328,0.047,0.639-0.232,0.694-0.625c0.056-0.392-0.165-0.747-0.494-0.793
			c-0.327-0.047-0.639,0.232-0.694,0.625C52.974,1.355,53.195,1.711,53.523,1.757z"/>
		<linearGradient id="SVGID_16_" gradientUnits="userSpaceOnUse" x1="35.8875" y1="81.2528" x2="35.8875" y2="-1.046221e-04">
			<stop  offset="0" style="stop-color:#E9AB13"/>
			<stop  offset="0.1429" style="stop-color:#EABE12"/>
			<stop  offset="1" style="stop-color:#FFDF4F"/>
		</linearGradient>
		<path fill="url(#SVGID_16_)" d="M36.041,2.354c0.529-0.074,0.889-0.627,0.805-1.236c-0.086-0.607-0.584-1.041-1.111-0.967
			c-0.529,0.074-0.891,0.627-0.805,1.235C35.016,1.995,35.512,2.428,36.041,2.354z"/>
		<linearGradient id="SVGID_17_" gradientUnits="userSpaceOnUse" x1="44.7138" y1="81.2528" x2="44.7138" y2="-1.046221e-04">
			<stop  offset="0" style="stop-color:#E9AB13"/>
			<stop  offset="0.1429" style="stop-color:#EABE12"/>
			<stop  offset="1" style="stop-color:#FFDF4F"/>
		</linearGradient>
		<path fill="url(#SVGID_17_)" d="M44.807,2.51c0.613-0.046,1.07-0.644,1.02-1.336c-0.052-0.692-0.591-1.217-1.205-1.171
			c-0.614,0.045-1.071,0.642-1.02,1.336C43.651,2.03,44.192,2.555,44.807,2.51z"/>
		<linearGradient id="SVGID_18_" gradientUnits="userSpaceOnUse" x1="66.9853" y1="81.2528" x2="66.9853" y2="-1.046221e-04">
			<stop  offset="0" style="stop-color:#E9AB13"/>
			<stop  offset="0.1429" style="stop-color:#EABE12"/>
			<stop  offset="1" style="stop-color:#FFDF4F"/>
		</linearGradient>
		<circle fill="url(#SVGID_18_)" cx="66.985" cy="5.396" r="0.265"/>
		<linearGradient id="SVGID_19_" gradientUnits="userSpaceOnUse" x1="57.8883" y1="81.2528" x2="57.8883" y2="-1.046221e-04">
			<stop  offset="0" style="stop-color:#E9AB13"/>
			<stop  offset="0.1429" style="stop-color:#EABE12"/>
			<stop  offset="1" style="stop-color:#FFDF4F"/>
		</linearGradient>
		<path fill="url(#SVGID_19_)" d="M57.108,7.282c0.675,0.373,1.572,0.047,2.003-0.732c0.431-0.777,0.232-1.712-0.443-2.085
			c-0.676-0.374-1.572-0.047-2.003,0.73C56.234,5.973,56.434,6.907,57.108,7.282z"/>
		<linearGradient id="SVGID_20_" gradientUnits="userSpaceOnUse" x1="5.21" y1="81.2528" x2="5.21" y2="-1.046221e-04">
			<stop  offset="0" style="stop-color:#E9AB13"/>
			<stop  offset="0.1429" style="stop-color:#EABE12"/>
			<stop  offset="1" style="stop-color:#FFDF4F"/>
		</linearGradient>
		<ellipse fill="url(#SVGID_20_)" cx="5.211" cy="32.095" rx="1.396" ry="1.25"/>
		<linearGradient id="SVGID_21_" gradientUnits="userSpaceOnUse" x1="75.6577" y1="81.2528" x2="75.6577" y2="-1.046221e-04">
			<stop  offset="0" style="stop-color:#E9AB13"/>
			<stop  offset="0.1429" style="stop-color:#EABE12"/>
			<stop  offset="1" style="stop-color:#FFDF4F"/>
		</linearGradient>
		<path fill="url(#SVGID_21_)" d="M74.967,57.944c-0.312,0.334-0.254,0.892,0.128,1.249c0.382,0.356,0.942,0.376,1.255,0.044
			c0.311-0.333,0.252-0.892-0.129-1.248C75.838,57.633,75.277,57.612,74.967,57.944z"/>
		<linearGradient id="SVGID_22_" gradientUnits="userSpaceOnUse" x1="66.675" y1="81.2528" x2="66.675" y2="-1.046222e-04">
			<stop  offset="0" style="stop-color:#E9AB13"/>
			<stop  offset="0.1429" style="stop-color:#EABE12"/>
			<stop  offset="1" style="stop-color:#FFDF4F"/>
		</linearGradient>
		<path fill="url(#SVGID_22_)" d="M66.175,65.891c-0.662,0.244-0.974,1.047-0.698,1.791c0.275,0.744,1.035,1.148,1.697,0.904
			c0.662-0.246,0.976-1.049,0.699-1.792C67.598,66.05,66.838,65.645,66.175,65.891z"/>
		<linearGradient id="SVGID_23_" gradientUnits="userSpaceOnUse" x1="71.1006" y1="81.2528" x2="71.1006" y2="-1.046221e-04">
			<stop  offset="0" style="stop-color:#E9AB13"/>
			<stop  offset="0.1429" style="stop-color:#EABE12"/>
			<stop  offset="1" style="stop-color:#FFDF4F"/>
		</linearGradient>
		<path fill="url(#SVGID_23_)" d="M70.349,61.667c-0.558,0.346-0.673,1.169-0.259,1.837c0.415,0.669,1.204,0.929,1.763,0.583
			c0.558-0.348,0.673-1.17,0.259-1.838C71.696,61.581,70.907,61.32,70.349,61.667z"/>
		<linearGradient id="SVGID_24_" gradientUnits="userSpaceOnUse" x1="62.3888" y1="81.2528" x2="62.3888" y2="-1.046221e-04">
			<stop  offset="0" style="stop-color:#E9AB13"/>
			<stop  offset="0.1429" style="stop-color:#EABE12"/>
			<stop  offset="1" style="stop-color:#FFDF4F"/>
		</linearGradient>
		<ellipse fill="url(#SVGID_24_)" cx="62.389" cy="71.74" rx="1.023" ry="1.056"/>
		<linearGradient id="SVGID_25_" gradientUnits="userSpaceOnUse" x1="80.3267" y1="81.2528" x2="80.3267" y2="-1.046221e-04">
			<stop  offset="0" style="stop-color:#E9AB13"/>
			<stop  offset="0.1429" style="stop-color:#EABE12"/>
			<stop  offset="1" style="stop-color:#FFDF4F"/>
		</linearGradient>
		<circle fill="url(#SVGID_25_)" cx="80.326" cy="54.229" r="0.394"/>
		<linearGradient id="SVGID_26_" gradientUnits="userSpaceOnUse" x1="80.0406" y1="81.2528" x2="80.0406" y2="-1.046221e-04">
			<stop  offset="0" style="stop-color:#E9AB13"/>
			<stop  offset="0.1429" style="stop-color:#EABE12"/>
			<stop  offset="1" style="stop-color:#FFDF4F"/>
		</linearGradient>
		<ellipse fill="url(#SVGID_26_)" cx="80.041" cy="45.237" rx="1.126" ry="0.992"/>
		<linearGradient id="SVGID_27_" gradientUnits="userSpaceOnUse" x1="58.0392" y1="81.2528" x2="58.0392" y2="-1.046221e-04">
			<stop  offset="0" style="stop-color:#E9AB13"/>
			<stop  offset="0.1429" style="stop-color:#EABE12"/>
			<stop  offset="1" style="stop-color:#FFDF4F"/>
		</linearGradient>
		<ellipse fill="url(#SVGID_27_)" cx="58.039" cy="76.376" rx="0.502" ry="0.553"/>
		<linearGradient id="SVGID_28_" gradientUnits="userSpaceOnUse" x1="79.9263" y1="81.2528" x2="79.9263" y2="-1.046221e-04">
			<stop  offset="0" style="stop-color:#E9AB13"/>
			<stop  offset="0.1429" style="stop-color:#EABE12"/>
			<stop  offset="1" style="stop-color:#FFDF4F"/>
		</linearGradient>
		<ellipse fill="url(#SVGID_28_)" cx="79.927" cy="36.512" rx="1.196" ry="1.112"/>
		<linearGradient id="SVGID_29_" gradientUnits="userSpaceOnUse" x1="42.4002" y1="81.2528" x2="42.4002" y2="-1.046221e-04">
			<stop  offset="0" style="stop-color:#E9AB13"/>
			<stop  offset="0.1429" style="stop-color:#EABE12"/>
			<stop  offset="1" style="stop-color:#FFDF4F"/>
		</linearGradient>
		<path fill="url(#SVGID_29_)" d="M75.997,43.137c0.884,0,1.837-0.77,1.837-2.217c0-1.447-0.827-2.195-1.737-2.195
			c-0.911,0-2.061-0.643-2.061-2.344c0-1.702,1.165-2.146,1.801-2.146c0.635,0,1.813-0.135,1.813-2.098
			c0-1.963-1.736-2.28-2.352-2.28c-0.614,0-0.713,0.021-1.256-0.77c-0.543-0.79-0.402-1.991-0.402-2.936
			c0-0.947-1.045-0.961-1.935-0.961c-0.89,0-2.098-0.798-2.098-2.33c0-1.531,0.819-1.935,1.532-1.935
			c0.714,0,1.744-0.12,1.744-1.983c0-1.864-1.715-1.878-1.715-1.878s-0.467-0.085-0.975,0.106c-0.508,0.19-0.96,0.402-0.96,1.349
			c0,0.946-0.416,1.786-1.758,1.786c-1.343,0-2.034-0.975-2.034-1.998c0-1.024,0.459-1.815,1.864-1.857
			c1.404-0.043,1.328-1.652,1.328-1.652s0.098-0.953-0.707-1.751c-0.805-0.798-1.878-0.536-2.549-0.205
			c-0.67,0.333-0.579,0.763-0.607,1.222c-0.028,0.459-0.042,1.729-1.877,1.729c-1.837,0-1.984-1.757-1.984-1.955
			c0-0.198-0.043-0.684,0.431-1.335c0.473-0.649,1.221-0.501,1.624-0.501c0.401,0,1.242-0.12,1.242-1.758s-1.32-1.942-1.963-1.942
			c-0.643,0-1.129,0.106-1.603,0.685c-0.474,0.579-0.063,1.017-0.339,1.766c-0.275,0.748-1.667,0.854-1.863,0.854
			c-0.199,0-0.523,0.085-1.462-0.494c-0.938-0.578-0.938-1.644-0.938-2.195c0-0.551-0.085-1.031-0.572-1.222
			c-0.488-0.19-1.758-0.071-2.57-0.099c-0.811-0.028-1.434-0.551-1.554-1.984c-0.119-1.434-1.75-1.998-2.231-1.998
			c-0.479,0-1.03,0.035-1.623,0.593c-0.593,0.558-0.474,1.138-0.565,1.744c-0.091,0.607-0.861,1.243-2.103,1.243
			c-1.243,0-1.809-0.594-2.133-1.031c-0.326-0.438-0.17-0.89-0.24-1.482c-0.07-0.594-1.285-1.236-2.189-1.236
			c-0.902,0-1.453,0.332-1.893,0.861c-0.438,0.53-0.26,1.151-0.332,1.709c-0.07,0.559-1.326,1.32-2.363,1.32
			c-1.039,0-1.617-0.466-1.858-0.713c-0.24-0.247-0.178-0.254-0.197-1.145c-0.021-0.889-1.158-1.672-1.893-1.708
			c-0.734-0.035-1.971,0.339-2.182,1.524c-0.213,1.188,0.062,1.37-0.051,1.822c-0.111,0.452-0.535,0.445-0.535,0.445
			s-0.191,0.001-1.316,0.001s-2.904,0.133-2.904,2.178c0,2.046-1.828,2.3-2.918,2.3c-1.09,0-1.572,0.267-1.572,1.32
			c0,3.146-2.592,3.109-3.305,3.109c-0.715,0-1.09,0.242-1.09,1.295c0,2.021-0.896,3.184-2.627,3.184
			c-1.73,0-1.875,1.804-1.875,2.433c0,0.63,0.121,1.948-1.102,1.948c-2.529,0-2.857,1.853-2.857,2.494s0.498,2.01,1.611,2.01
			c1.113,0,1.863,0.811,1.863,1.996c0,1.186-0.691,2.42-2.324,2.42c-1.635,0-1.572,1.78-1.572,2.252
			c0,0.473,0.047,2.227,1.039,2.227c1.537,0,2.639,0.872,2.639,2.229c0,1.354-1.027,2.189-2.262,2.189
			c-1.234,0-1.344,1.283-1.344,2.046s0.072,2.396,1.936,2.396c1.865,0,2.215,1.84,2.215,2.251c0,0.412,0,2.203-1.356,2.203
			c-1.742,0-2.082,1.174-2.082,2.058c0,0.884,0.4,1.948,2.01,1.948c1.609,0,1.586-0.98,1.586-1.501s-0.352-1.839,1.693-1.839
			c2.045,0,1.986,1.814,1.986,1.814c0,2.119-2.215,1.998-2.215,1.998c-1.236,0-1.127,1.767-1.127,1.767
			c0,1.84,1.127,2.554,2.748,2.554s1.404,1.138,1.404,1.138c0,3.341,2.717,3.448,3.295,3.448c0.58,0,1.264-0.077,1.264,1.293
			c0,1.977,1.32,2.881,2.57,2.881s1.744-0.437,1.744-1.314c0-0.875,0.564-2.04,1.976-2.04c1.412,0,1.879,1.13,1.879,1.864
			c0,0.734-0.135,1.736-1.709,1.736c-1.574,0-1.617,0.953-1.617,1.604c0,0.648,0.318,2.09,1.9,2.09c1.582,0,2.012-1.3,2.012-2.161
			c0-0.861,1.102-1.264,2.047-1.264c0.947,0,2.43,0.649,2.43,2.068c0,1.419,1.342,2.069,2.414,2.069
			c1.074,0,1.971-0.396,1.971-1.398c0-1.002,0.494-2.287,2.266-2.287c1.774,0,2.26,1.785,2.26,2.541c0,0.756,0.755,1.25,2.14,1.25
			c1.383,0,2.237-0.354,2.237-1.631c0-1.277,0.89-2.352,2.408-2.352c1.517,0,2.117,1.187,2.117,1.709
			c0,0.523-0.162,1.801,2.041,1.801c2.202,0,2.202-1.702,2.202-1.702s-0.268-2.365,1.978-2.365c2.774,0,2.675-1.843,2.675-1.843
			c0-2.697,2.966-2.549,2.966-2.549s1.406,0.014,1.406-1.199c0-3.058,2.139-3.311,3.119-3.311c0.981,0,1.385-0.347,1.385-1.632
			c0-1.285,0.452-2.753,2.167-2.753c1.716,0,2.225-1.616,2.225-3.29c0-1.674,0.776-1.405,1.651-1.405
			c0.876,0,2.183-0.699,2.183-2.195c0-1.497-1.286-1.999-1.928-1.999c-0.643,0-1.567-0.465-1.567-2.181S75.114,43.137,75.997,43.137
			z M13.49,46.242c-0.488,0-0.885-0.362-0.885-0.808c0-0.446,0.397-0.808,0.885-0.808c0.488,0,0.883,0.361,0.883,0.808
			C14.373,45.88,13.979,46.242,13.49,46.242z M12.721,36.495c0-0.377,0.318-0.682,0.711-0.682c0.395,0,0.713,0.305,0.713,0.682
			c0,0.375-0.318,0.68-0.713,0.68C13.039,37.175,12.721,36.87,12.721,36.495z M14.623,27.96c-0.271,0.704-1.154,1.02-1.975,0.704
			c-0.818-0.315-1.264-1.143-0.992-1.847c0.271-0.705,1.156-1.02,1.975-0.705C14.451,26.428,14.895,27.255,14.623,27.96z
			 M17.891,22.231c0.418,0,0.756,0.339,0.756,0.757c0,0.418-0.338,0.757-0.756,0.757c-0.418,0-0.758-0.339-0.758-0.757
			C17.133,22.57,17.473,22.231,17.891,22.231z M18.404,49.803c0,0.153-0.125,0.279-0.279,0.279s-0.279-0.126-0.279-0.279
			c0-0.156,0.125-0.281,0.279-0.281S18.404,49.647,18.404,49.803z M18.479,60.157c-0.668,0.514-1.59,0.438-2.059-0.172
			c-0.469-0.609-0.309-1.52,0.359-2.035c0.668-0.514,1.59-0.437,2.059,0.172C19.307,58.731,19.146,59.643,18.479,60.157z
			 M62.593,22.778c0.187,0,0.336,0.15,0.336,0.337c0,0.187-0.15,0.337-0.336,0.337s-0.338-0.15-0.338-0.337
			C62.255,22.928,62.406,22.778,62.593,22.778z M58.154,18.378c0.157,0,0.286,0.129,0.286,0.286c0,0.158-0.129,0.286-0.286,0.286
			c-0.158,0-0.287-0.128-0.287-0.286C57.867,18.507,57.996,18.378,58.154,18.378z M53.665,13.647c0.298,0,0.54,0.239,0.54,0.533
			c0,0.296-0.242,0.535-0.54,0.535c-0.3,0-0.541-0.239-0.541-0.535C53.124,13.887,53.365,13.647,53.665,13.647z M49.271,7.936
			c0.688,0,1.245,0.627,1.245,1.399c0,0.772-0.558,1.399-1.245,1.399c-0.689,0-1.246-0.627-1.246-1.399
			C48.025,8.563,48.582,7.936,49.271,7.936z M40.4,8.432c0.551,0,0.999,0.447,0.999,0.998c0,0.553-0.448,0.999-0.999,0.999
			c-0.553,0-0.998-0.446-0.998-0.999C39.402,8.88,39.848,8.432,40.4,8.432z M30.484,7.64c0.787-0.335,1.734,0.12,2.115,1.017
			c0.381,0.896,0.051,1.895-0.736,2.229c-0.787,0.335-1.734-0.12-2.117-1.017C29.367,8.972,29.697,7.975,30.484,7.64z
			 M26.824,13.138c0.506,0,0.916,0.409,0.916,0.915c0,0.506-0.41,0.916-0.916,0.916c-0.506,0-0.916-0.41-0.916-0.916
			C25.908,13.548,26.318,13.138,26.824,13.138z M22.398,17.983c0.33,0,0.598,0.268,0.598,0.599c0,0.329-0.267,0.597-0.598,0.597
			c-0.33,0-0.598-0.267-0.598-0.597C21.801,18.251,22.068,17.983,22.398,17.983z M22.873,64.891
			c-0.738,0.397-1.646,0.145-2.025-0.56c-0.377-0.706-0.084-1.6,0.656-1.996c0.74-0.396,1.646-0.145,2.025,0.562
			C23.906,63.602,23.613,64.495,22.873,64.891z M31.408,63.448c-0.15,0-0.273-0.122-0.273-0.274c0-0.15,0.123-0.273,0.273-0.273
			c0.152,0,0.273,0.123,0.273,0.273C31.682,63.326,31.561,63.448,31.408,63.448z M35.828,68.739c-0.479,0-0.865-0.401-0.865-0.896
			c0-0.495,0.387-0.896,0.865-0.896c0.476,0,0.863,0.401,0.863,0.896C36.691,68.338,36.305,68.739,35.828,68.739z M44.73,68.497
			c-0.365,0-0.661-0.316-0.661-0.705c0-0.391,0.296-0.706,0.661-0.706c0.366,0,0.661,0.315,0.661,0.706
			C45.392,68.18,45.097,68.497,44.73,68.497z M53.849,69.553c-0.751,0-1.36-0.657-1.36-1.468c0-0.812,0.609-1.47,1.36-1.47
			c0.752,0,1.361,0.657,1.361,1.47C55.21,68.895,54.601,69.553,53.849,69.553z M58.211,64.186c-0.422,0-0.763-0.376-0.763-0.84
			c0-0.463,0.341-0.84,0.763-0.84c0.421,0,0.764,0.377,0.764,0.84C58.975,63.81,58.632,64.186,58.211,64.186z M58.917,48.619v3.402
			c0,4.188-5.989,4.139-5.989,0v-3.402H42.156h-0.005H31.38v3.402c0,4.139-5.988,4.188-5.988,0v-3.402h-3.188V37.97
			c0-2.858,2.299-4.37,3.598-4.534l3.278-8.371c0.617-1.594,1.954-2.956,4.474-2.956h4.683v-2.186c0-0.873,0.475-1.316,1.246-1.316
			h2.669h0.005h2.723c0.771,0,1.245,0.443,1.245,1.316v2.186h4.63c2.519,0,3.855,1.362,4.474,2.956l3.276,8.371
			c1.299,0.164,3.6,1.676,3.6,4.534v10.649H58.917z M62.675,59.507c-0.352,0-0.636-0.282-0.636-0.63c0-0.349,0.284-0.63,0.636-0.63
			c0.352,0,0.636,0.281,0.636,0.63C63.311,59.224,63.026,59.507,62.675,59.507z M67.151,26.962c0.309,0,0.561,0.251,0.561,0.561
			c0,0.309-0.252,0.559-0.561,0.559c-0.31,0-0.56-0.25-0.56-0.559C66.592,27.213,66.842,26.962,67.151,26.962z M67.291,45.581
			c0,0.07-0.058,0.127-0.127,0.127c-0.07,0-0.127-0.057-0.127-0.127c0-0.07,0.057-0.128,0.127-0.128
			C67.233,45.453,67.291,45.511,67.291,45.581z M67.196,55.296c-0.496,0-0.897-0.4-0.897-0.896s0.401-0.897,0.897-0.897
			c0.495,0,0.896,0.402,0.896,0.897S67.691,55.296,67.196,55.296z M71.922,30.761c0.755,0,1.368,0.537,1.368,1.201
			c0,0.664-0.613,1.202-1.368,1.202s-1.367-0.538-1.367-1.202C70.555,31.298,71.167,30.761,71.922,30.761z M72.798,40.938
			c0,0.533-0.453,0.967-1.011,0.967c-0.559,0-1.012-0.434-1.012-0.967s0.453-0.966,1.012-0.966
			C72.345,39.972,72.798,40.405,72.798,40.938z M72.028,51.646c-0.931,0-1.686-0.737-1.686-1.646c0-0.909,0.755-1.647,1.686-1.647
			c0.931,0,1.685,0.738,1.685,1.647C73.713,50.909,72.959,51.646,72.028,51.646z"/>
		<linearGradient id="SVGID_30_" gradientUnits="userSpaceOnUse" x1="40.3555" y1="81.2528" x2="40.3555" y2="-1.046221e-04">
			<stop  offset="0" style="stop-color:#E9AB13"/>
			<stop  offset="0.1429" style="stop-color:#EABE12"/>
			<stop  offset="1" style="stop-color:#FFDF4F"/>
		</linearGradient>
		<ellipse fill="url(#SVGID_30_)" cx="40.355" cy="75.899" rx="1.514" ry="1.666"/>
		<linearGradient id="SVGID_31_" gradientUnits="userSpaceOnUse" x1="18.1377" y1="81.2528" x2="18.1377" y2="-1.046221e-04">
			<stop  offset="0" style="stop-color:#E9AB13"/>
			<stop  offset="0.1429" style="stop-color:#EABE12"/>
			<stop  offset="1" style="stop-color:#FFDF4F"/>
		</linearGradient>
		<circle fill="url(#SVGID_31_)" cx="18.139" cy="71.906" r="0.509"/>
		<linearGradient id="SVGID_32_" gradientUnits="userSpaceOnUse" x1="49.1372" y1="81.2528" x2="49.1372" y2="-1.046221e-04">
			<stop  offset="0" style="stop-color:#E9AB13"/>
			<stop  offset="0.1429" style="stop-color:#EABE12"/>
			<stop  offset="1" style="stop-color:#FFDF4F"/>
		</linearGradient>
		<ellipse fill="url(#SVGID_32_)" cx="49.137" cy="75.975" rx="1.277" ry="1.424"/>
		<linearGradient id="SVGID_33_" gradientUnits="userSpaceOnUse" x1="22.5381" y1="81.2528" x2="22.5381" y2="-1.046221e-04">
			<stop  offset="0" style="stop-color:#E9AB13"/>
			<stop  offset="0.1429" style="stop-color:#EABE12"/>
			<stop  offset="1" style="stop-color:#FFDF4F"/>
		</linearGradient>
		<circle fill="url(#SVGID_33_)" cx="22.537" cy="76.471" r="0.229"/>
		<linearGradient id="SVGID_34_" gradientUnits="userSpaceOnUse" x1="13.8331" y1="81.2528" x2="13.8331" y2="-1.046221e-04">
			<stop  offset="0" style="stop-color:#E9AB13"/>
			<stop  offset="0.1429" style="stop-color:#EABE12"/>
			<stop  offset="1" style="stop-color:#FFDF4F"/>
		</linearGradient>
		<circle fill="url(#SVGID_34_)" cx="13.834" cy="67.435" r="0.642"/>
		<linearGradient id="SVGID_35_" gradientUnits="userSpaceOnUse" x1="44.7364" y1="81.2528" x2="44.7364" y2="-1.046221e-04">
			<stop  offset="0" style="stop-color:#E9AB13"/>
			<stop  offset="0.1429" style="stop-color:#EABE12"/>
			<stop  offset="1" style="stop-color:#FFDF4F"/>
		</linearGradient>
		<circle fill="url(#SVGID_35_)" cx="44.737" cy="80.89" r="0.299"/>
		<linearGradient id="SVGID_36_" gradientUnits="userSpaceOnUse" x1="5.3272" y1="81.2528" x2="5.3272" y2="-1.046221e-04">
			<stop  offset="0" style="stop-color:#E9AB13"/>
			<stop  offset="0.1429" style="stop-color:#EABE12"/>
			<stop  offset="1" style="stop-color:#FFDF4F"/>
		</linearGradient>
		<ellipse fill="url(#SVGID_36_)" cx="5.328" cy="40.854" rx="1.664" ry="1.557"/>
		<linearGradient id="SVGID_37_" gradientUnits="userSpaceOnUse" x1="9.3262" y1="81.2528" x2="9.3262" y2="-1.046221e-04">
			<stop  offset="0" style="stop-color:#E9AB13"/>
			<stop  offset="0.1429" style="stop-color:#EABE12"/>
			<stop  offset="1" style="stop-color:#FFDF4F"/>
		</linearGradient>
		<circle fill="url(#SVGID_37_)" cx="9.324" cy="63.093" r="0.521"/>
		<linearGradient id="SVGID_38_" gradientUnits="userSpaceOnUse" x1="31.6319" y1="81.2528" x2="31.6319" y2="-1.046221e-04">
			<stop  offset="0" style="stop-color:#E9AB13"/>
			<stop  offset="0.1429" style="stop-color:#EABE12"/>
			<stop  offset="1" style="stop-color:#FFDF4F"/>
		</linearGradient>
		<circle fill="url(#SVGID_38_)" cx="31.631" cy="76.09" r="1.03"/>
		<linearGradient id="SVGID_39_" gradientUnits="userSpaceOnUse" x1="35.9102" y1="81.2528" x2="35.9102" y2="-1.046221e-04">
			<stop  offset="0" style="stop-color:#E9AB13"/>
			<stop  offset="0.1429" style="stop-color:#EABE12"/>
			<stop  offset="1" style="stop-color:#FFDF4F"/>
		</linearGradient>
		<circle fill="url(#SVGID_39_)" cx="35.91" cy="80.954" r="0.299"/>
	</g>
	<linearGradient id="SVGID_40_" gradientUnits="userSpaceOnUse" x1="42.1526" y1="67.6746" x2="42.1526" y2="4.0417">
		<stop  offset="0" style="stop-color:#E9AB13"/>
		<stop  offset="0.1429" style="stop-color:#EABE12"/>
		<stop  offset="1" style="stop-color:#FFDF4F"/>
	</linearGradient>
	<path fill="url(#SVGID_40_)" d="M52.644,26.762c-0.31-0.926-0.772-1.594-1.851-1.604h-8.637h-0.005h-0.006h-8.631
		c-1.08,0.01-1.543,0.678-1.852,1.604l-2.468,6.477h12.951h0.006h0.005H55.11L52.644,26.762z"/>
	<linearGradient id="SVGID_41_" gradientUnits="userSpaceOnUse" x1="28.4812" y1="67.6737" x2="28.4812" y2="4.0418">
		<stop  offset="0" style="stop-color:#E9AB13"/>
		<stop  offset="0.1429" style="stop-color:#EABE12"/>
		<stop  offset="1" style="stop-color:#FFDF4F"/>
	</linearGradient>
	<ellipse fill="url(#SVGID_41_)" cx="28.481" cy="39.286" rx="2.767" ry="2.822"/>
	<linearGradient id="SVGID_42_" gradientUnits="userSpaceOnUse" x1="55.8252" y1="67.6737" x2="55.8252" y2="4.0418">
		<stop  offset="0" style="stop-color:#E9AB13"/>
		<stop  offset="0.1429" style="stop-color:#EABE12"/>
		<stop  offset="1" style="stop-color:#FFDF4F"/>
	</linearGradient>
	<ellipse fill="url(#SVGID_42_)" cx="55.824" cy="39.286" rx="2.766" ry="2.822"/>
	<linearGradient id="SVGID_43_" gradientUnits="userSpaceOnUse" x1="42.2476" y1="49.4022" x2="42.2476" y2="56.7791">
		<stop  offset="0" style="stop-color:#EDC119"/>
		<stop  offset="0.1429" style="stop-color:#EDC119"/>
		<stop  offset="1" style="stop-color:#FFEDA9"/>
	</linearGradient>
	<path fill="url(#SVGID_43_)" d="M52.713,55.547c-0.916-0.838-1.488-2.113-1.488-3.556l0,0c0.002,0,0-0.013,0-0.045l0,0v-1.693
		h-9.069H42.15H33.08v1.705c0,0.021,0,0.032,0,0.032l0,0c0,1.44-0.573,2.717-1.488,3.554l0,0c-0.913,0.84-2.081,1.233-3.22,1.233
		l0,0c-1.134,0-2.299-0.389-3.206-1.23l0,0c-0.917-0.84-1.476-2.118-1.476-3.556l0,0c0-0.001-0.002-0.021,0-0.033l0,0v-1.705
		l-1.127,0.002c-0.235,0-0.424-0.19-0.424-0.425l0,0c0-0.236,0.189-0.428,0.424-0.428l0,0h1.553c0.112,0,0.221,0.047,0.301,0.125
		l0,0c0.079,0.082,0.125,0.189,0.125,0.303l0,0l-0.002,2.161c0,1.219,0.475,2.267,1.203,2.932l0,0
		c0.734,0.683,1.688,1.005,2.629,1.005l0,0c0.946,0,1.901-0.327,2.645-1.01l0,0c0.729-0.666,1.212-1.713,1.212-2.928l0,0
		c0-0.022,0-0.032,0-0.032l0,0V49.83c0-0.113,0.046-0.223,0.124-0.303l0,0c0.079-0.078,0.19-0.125,0.301-0.125l0,0h9.495h0.005
		h9.496c0.11,0,0.221,0.047,0.3,0.125l0,0c0.078,0.082,0.125,0.189,0.125,0.303l0,0v2.128l-0.005,0.033h0.002l0,0l0,0
		c0.001,0.001,0.001,0.005,0.001,0.015l0,0c0.003,1.211,0.488,2.25,1.214,2.914l0,0c0.743,0.681,1.698,1.008,2.646,1.01l0,0
		c0.94-0.002,1.893-0.324,2.63-1.008l0,0c0.724-0.666,1.201-1.712,1.201-2.928l0,0c0-0.031,0-0.036,0-0.036l0,0V49.83
		c0-0.113,0.046-0.223,0.124-0.303l0,0c0.079-0.078,0.19-0.125,0.302-0.125l0,0h1.741v0.002c0.234,0,0.424,0.19,0.424,0.426l0,0
		c0,0.232-0.189,0.423-0.424,0.423l0,0h-1.316v1.705c0,0.032-0.002,0.036,0,0.036l0,0c-0.002,1.439-0.564,2.713-1.475,3.553l0,0
		c-0.91,0.842-2.076,1.23-3.207,1.232l0,0C54.793,56.777,53.626,56.384,52.713,55.547L52.713,55.547z"/>
	<linearGradient id="SVGID_44_" gradientUnits="userSpaceOnUse" x1="55.8233" y1="39.6463" x2="55.8233" y2="37.2489">
		<stop  offset="0" style="stop-color:#F1C829"/>
		<stop  offset="0.1429" style="stop-color:#F1C829"/>
		<stop  offset="1" style="stop-color:#FFEDA9"/>
	</linearGradient>
	<path fill="url(#SVGID_44_)" d="M56.891,39.22c-0.002-0.645-0.506-1.121-1.066-1.123l0,0c-0.562,0.002-1.066,0.479-1.067,1.125l0,0
		c0,0.232-0.19,0.424-0.426,0.424l0,0c-0.235-0.002-0.425-0.191-0.425-0.426l0,0c0.002-1.1,0.871-1.969,1.918-1.972l0,0
		c1.047,0.003,1.914,0.872,1.916,1.972l0,0c0,0.234-0.19,0.424-0.424,0.426l0,0C57.081,39.646,56.891,39.455,56.891,39.22
		L56.891,39.22z"/>
	<linearGradient id="SVGID_45_" gradientUnits="userSpaceOnUse" x1="28.4807" y1="39.6463" x2="28.4807" y2="37.2489">
		<stop  offset="0" style="stop-color:#F1C829"/>
		<stop  offset="0.1429" style="stop-color:#F1C829"/>
		<stop  offset="1" style="stop-color:#FFEDA9"/>
	</linearGradient>
	<path fill="url(#SVGID_45_)" d="M29.546,39.222c-0.002-0.646-0.505-1.123-1.066-1.125l0,0c-0.56,0.002-1.065,0.479-1.065,1.125l0,0
		c-0.002,0.232-0.193,0.424-0.426,0.424l0,0c-0.234-0.002-0.426-0.191-0.424-0.426l0,0c0.002-1.1,0.869-1.969,1.915-1.972l0,0
		c1.046,0.003,1.914,0.872,1.916,1.969l0,0v0.003c0.002,0.234-0.189,0.424-0.424,0.426l0,0
		C29.737,39.646,29.548,39.455,29.546,39.222L29.546,39.222z"/>
	<linearGradient id="SVGID_46_" gradientUnits="userSpaceOnUse" x1="42.1511" y1="32.3231" x2="42.1511" y2="25.9412">
		<stop  offset="0" style="stop-color:#F4CC30"/>
		<stop  offset="0.1429" style="stop-color:#F4CC30"/>
		<stop  offset="1" style="stop-color:#FFEDA9"/>
	</linearGradient>
	<path fill="url(#SVGID_46_)" d="M30.893,32.295c-0.219-0.083-0.33-0.328-0.246-0.548l0,0l1.802-4.73
		c0.167-0.473,0.278-0.695,0.5-0.903l0,0c0,0,0,0,0.021-0.019l0,0c0.028-0.024,0.091-0.066,0.153-0.09l0,0
		c0.128-0.046,0.221-0.051,0.405-0.065l0,0l8.613,0.002l0.011-0.002h0.005l8.662,0.002c0.194,0.005,0.392,0.047,0.521,0.154l0,0
		c0.018,0.017,0.018,0.017,0.057,0.047l0,0c0.18,0.174,0.293,0.397,0.434,0.803l0,0l1.826,4.799h0.002
		c0.082,0.219-0.028,0.465-0.248,0.547l0,0c-0.219,0.085-0.465-0.025-0.549-0.245l0,0l-1.832-4.817
		c-0.07-0.22-0.146-0.367-0.188-0.432l0,0c-0.016-0.002-0.033-0.004-0.049-0.006l0,0l-8.635-0.002l-0.012,0.002l-8.593-0.002
		c-0.035,0.002-0.063,0.006-0.085,0.008l0,0c-0.011,0.016-0.024,0.039-0.039,0.067l0,0c-0.045,0.085-0.107,0.224-0.177,0.437l0,0
		l-1.809,4.748c-0.064,0.168-0.226,0.272-0.397,0.272l0,0C30.994,32.323,30.942,32.314,30.893,32.295L30.893,32.295z"/>
	<linearGradient id="SVGID_47_" gradientUnits="userSpaceOnUse" x1="50.8716" y1="26.8016" x2="50.8716" y2="26.8114">
		<stop  offset="0" style="stop-color:#CC6C28"/>
		<stop  offset="0.1429" style="stop-color:#EC7823"/>
		<stop  offset="1" style="stop-color:#FEC14D"/>
	</linearGradient>
	<polygon fill="url(#SVGID_47_)" points="50.871,26.811 50.877,26.803 50.866,26.802 50.866,26.802 50.871,26.811 	"/>
	<linearGradient id="SVGID_48_" gradientUnits="userSpaceOnUse" x1="33.4383" y1="26.7996" x2="33.4383" y2="26.8015">
		<stop  offset="0" style="stop-color:#CC6C28"/>
		<stop  offset="0.1429" style="stop-color:#EC7823"/>
		<stop  offset="1" style="stop-color:#FEC14D"/>
	</linearGradient>
	<rect x="33.437" y="26.801" fill="url(#SVGID_48_)" width="0.003" height="0"/>
</g>
</svg>
